# xmcd
#
# Track frame offsets:
#	150
#	19772
#	35380
#	45720
#	61630
#	73397
#	85325
#	100000
#	114537
#	126442
#	139780
#	155315
#	165880
#	182037
#	194142
#	205642
#
# Disc length: 2936 seconds
# Revision: 1
# Processed by: cddbd v1.5.2PL0 Copyright (c) Steve Scherf et al.
# Submitted via: dBpowerAMP V12.0
#
DISCID=d90b7610
DTITLE=Clarence Carter - Patches
DYEAR=1972
DGENRE=Soul
TTITLE0=Willie and Laura Mae Jones
TTITLE1=Say Man
TTITLE2=I'm Just a Prisoner
TTITLE3=Let It Be
TTITLE4=I Can't Leave Your Love Alone
TTITLE5=Your Love Lifted Me
TTITLE6=Till I Can't Tak It Anymore
TTITLE7=Patches
TTITLE8=It's all in Your Mind
TTITLE9=Changes
TTITLE10=C.C. Blues
TTITLE11=Getting the Bills
TTITLE12=Scrtach My Back
TTITLE13=I'm the One
TTITLE14=If You Can't Beat Them
TTITLE15=Lonesomest Lonesome
EXTD=
EXTT0=
EXTT1=
EXTT2=
EXTT3=
EXTT4=
EXTT5=
EXTT6=
EXTT7=
EXTT8=
EXTT9=
EXTT10=
EXTT11=
EXTT12=
EXTT13=
EXTT14=
EXTT15=
PLAYORDER=
